<?xml version="1.0" standalone="no"?>
<!DOCTYPE svg PUBLIC "-//W3C//DTD SVG 1.1//EN" "http://www.w3.org/Graphics/SVG/1.1/DTD/svg11.dtd" >
<svg>
<metadata>
Created by FontForge 20090622 at Wed Jan  9 11:58:09 2013
 By root
Copyright &#194;&#169; 2012 by Tangent Snowball (@flamingwhopper, @nathanstaines, @jackarmley, @pete_miller). All rights reserved.
</metadata>
<defs>
<font id="Snowcone-Vanilla" horiz-adv-x="2048" >
  <font-face 
    font-family="Snowcone Vanilla"
    font-weight="400"
    font-stretch="normal"
    units-per-em="2048"
    panose-1="0 0 5 0 0 0 0 0 0 0"
    ascent="1638"
    descent="-410"
    bbox="-3 0 2049.29 2142"
    underline-thickness="50"
    underline-position="-50"
    unicode-range="U+F021-U+F114"
  />
<missing-glyph horiz-adv-x="250" 
 />
    <glyph glyph-name=".notdef" horiz-adv-x="250" 
 />
    <glyph glyph-name=".null" horiz-adv-x="0" 
 />
    <glyph glyph-name="nonmarkingreturn" horiz-adv-x="682" 
 />
    <glyph glyph-name="unif021" unicode="&#xf021;" 
d="M1024 2048q208 0 397.5 -81.5t326.5 -218.5t218.5 -326.5t81.5 -397.5t-81.5 -397.5t-218.5 -326.5t-326.5 -218.5t-397.5 -81.5t-397.5 81.5t-326.5 218.5t-218.5 326.5t-81.5 397.5t81.5 397.5t218.5 326.5t326.5 218.5t397.5 81.5zM1545 1111h171v346h-517l-175 -174
v174h-692v-346h171v-520h346v520h175l175 -174h-175v-346h521l171 174v172z" />
    <glyph glyph-name="unif022" unicode="&#xf022;" 
d="M1348 919l188 -151q5 0 14.5 -1t38.5 -7.5t58 -18.5t69 -38.5t76 -62.5t75.5 -115t70.5 -166.5t56.5 -169.5t39.5 -135l14 -54h-2048q5 21 14.5 56t38.5 130.5t58 175t69 161t76 117.5t75.5 62.5t70.5 38.5t56.5 18.5t39.5 7.5l14 1l184 152h102l27 104q-6 8 -28.5 41.5
l-37.5 56.5t-32.5 54t-24.5 51q-37 -9 -63 17.5t-21 113.5q-25 61 -33 107t-3 69.5t19.5 37.5t28 17.5t29.5 2.5q3 86 12 148t32.5 123.5t62.5 99.5t104 61.5t154 23.5t154 -23.5t104 -61.5t62.5 -99t32.5 -123.5t12 -148.5q16 0 29.5 -4t26.5 -18.5t17 -39t-4.5 -69
t-32.5 -103.5q5 -86 -20 -113t-61 -19q-25 -64 -118 -202l25 -105h97zM1213 198l114 114l-189 189l189 189l-114 114l-189 -190l-189 190l-114 -114l190 -189l-190 -189l114 -114l189 189z" />
    <glyph glyph-name="unif023" unicode="&#xf023;" 
d="M0 1024l512 640h1536v-1280h-1536zM512 896q53 0 90.5 37.5t37.5 90.5t-37.5 90.5t-90.5 37.5t-90.5 -37.5t-37.5 -90.5t37.5 -90.5t90.5 -37.5z" />
    <glyph glyph-name="unif024" unicode="&#xf024;" 
d="M1024 414l543 -395q20 -14 44 -14t44 14q19 14 27 37t0 46l-208 639l543 394q20 14 27 37.5t0 46.5q-8 23 -27 37t-43 14h-672l-207 639q-8 23 -27.5 37t-43.5 14t-43.5 -14t-27.5 -37l-207 -639h-671q-25 0 -44 -14t-27 -37q-7 -23 0 -46.5t27 -37.5l543 -394l-208 -639
q-7 -23 0.5 -46t27.5 -37t44 -14t43 14z" />
    <glyph glyph-name="unif025" unicode="&#xf025;" 
d="M1457 1166l302 241q161 -231 161 -511q0 -182 -71 -348t-191 -286t-286 -191t-348 -71t-348 71t-286 191t-191 286t-71 348q0 301 179.5 537.5t460.5 320.5v294l640 -512l-640 -512v313q-117 -68 -186.5 -185t-69.5 -256q0 -212 150 -362t362 -150t362 150t150 362
q0 145 -79 270z" />
    <glyph glyph-name="unif026" unicode="&#xf026;" 
d="M768 896v512h-256l512 640l512 -640h-256v-512h-512zM1792 1024h256v-1024h-2048v1024h256v-256h1536v256z" />
    <glyph glyph-name="unif027" unicode="&#xf027;" 
d="M1280 2048v-512h256l-512 -640l-512 640h256v512h512zM1792 1024h256v-1024h-2048v1024h256v-256h1536v256z" />
    <glyph glyph-name="unif028" unicode="&#xf028;" 
d="M1536 2048h-1024v-2048l512 384l512 -384v2048z" />
    <glyph glyph-name="unif029" unicode="&#xf029;" 
d="M384 2048h1536l-384 -512l384 -512h-1280v-1024h-256v2048z" />
    <glyph glyph-name="unif02a" unicode="&#xf02a;" 
d="M1920 2048h-1408v-256h1152v-1408h256v1664zM128 0v1664h1408v-1664h-1408zM384 1152h896v128h-896v-128zM384 896h896v128h-896v-128zM384 640h896v128h-896v-128zM384 384h896v128h-896v-128z" />
    <glyph glyph-name="unif02b" unicode="&#xf02b;" 
d="M1536 1792q0 106 -75 181t-181 75t-181 -75t-75 -181t75 -181t181 -75t181 75t75 181zM896 1152l-256 -128q10 16 29 41.5t77 92t116 117t138 92t152 41.5q53 0 94.5 -8t68.5 -19.5t45.5 -34t27.5 -39.5t14 -49t5.5 -50.5t0.5 -55.5q0 -57 -64 -281t-128 -419l-64 -196
l256 128q-10 -16 -29 -41.5t-77 -92t-116 -117t-138 -92t-152 -41.5q-53 0 -94.5 8t-68.5 19.5t-45.5 34t-27.5 39.5t-14 49t-5.5 50.5t-0.5 55.5q0 57 64 281t128 419z" />
    <glyph glyph-name="unif02c" unicode="&#xf02c;" 
d="M256 1664h256v384h-256v-384zM1536 1664h256v384h-256v-384zM1920 1536v256h128v-1792h-2048v1792h128v-256h512v256h768v-256h512zM128 1152h1792v128h-1792v-128zM128 640h256v256h-256v-256zM512 640h256v256h-256v-256zM896 640h256v256h-256v-256zM1664 640h256v256
h-256v-256zM128 256h256v256h-256v-256zM512 256h256v256h-256v-256zM896 256h256v256h-256v-256zM1280 256h256v256h-256v-256zM1664 256h256v256h-256v-256z" />
    <glyph glyph-name="unif02d" unicode="&#xf02d;" 
d="M384 896v1152h1280v-1152h-1280zM640 1664h768v128h-768v-128zM640 1408h768v128h-768v-128zM640 1152h768v128h-768v-128zM1792 1024h256v-1024h-2048v1024h256v-256h1536v256zM256 256h256v256h-256v-256z" />
    <glyph glyph-name="unif02e" unicode="&#xf02e;" 
d="M1024 2048l1024 -1024h-384v-1024h-384v640h-512v-640h-384v1024h-384z" />
    <glyph glyph-name="unif02f" unicode="&#xf02f;" 
d="M1024 1841q116 0 234.5 -45t216.5 -117t189 -159.5t159.5 -174.5t120 -159t78.5 -117l26 -45l-27.5 -46.5t-76 -114.5t-121.5 -162t-158 -171t-190.5 -162t-215 -114.5t-235.5 -46.5q-91 0 -184 28t-173.5 75t-159 108.5t-143.5 129t-123 135.5t-101.5 129.5l-75 108.5
t-48.5 75l-16 28l27.5 46.5t76.5 114.5t121.5 162t158 171t191 162t215 114.5t234.5 46.5zM1038 516q144 0 265.5 71t192.5 193t71 266t-71 265.5t-192.5 192.5t-265.5 71t-266 -71t-193 -192.5t-71 -265.5t71 -266t193 -193t266 -71zM1246 1018q0 92 -65 157t-157 65
t-157 -65t-65 -157q0 -93 65 -158t157 -65t157 65t65 158z" />
    <glyph glyph-name="unif030" unicode="&#xf030;" 
d="M1408 1280h-640q-184 0 -256 -128l-512 -384q0 488 195 756t573 268h640v256l640 -512l-640 -512v256zM640 768h640q184 0 256 128l512 384q0 -488 -195 -756t-573 -268h-640v-256l-640 512l640 512v-256z" />
    <glyph glyph-name="unif031" unicode="&#xf031;" 
d="M256 1664h256v384h-256v-384zM1536 1664h256v384h-256v-384zM1920 1536v256h128v-1792h-2048v1792h128v-256h512v256h768v-256h512zM256 384h656v187q0 5 -1.5 12.5t-14 28t-34 37.5t-69 34t-111.5 24q41 37 65.5 99.5t24.5 139.5q0 53 -19.5 91.5t-47 56t-55 28
t-46.5 11.5l-20 1q-8 0 -20.5 -1t-44.5 -11.5t-57 -28t-45 -56t-20 -91.5q0 -77 24.5 -139.5t64.5 -99.5q-64 -7 -111.5 -23.5t-69 -35t-34 -36.5t-13.5 -30l-2 -11v-187zM1152 896h640v128h-640v-128zM1152 640h640v128h-640v-128zM1152 384h640v128h-640v-128z" />
    <glyph glyph-name="unif032" unicode="&#xf032;" 
d="M0 1536h512q0 212 150 362t362 150t362 -150t150 -362h512l-128 -1536h-1792zM626 1536h796q0 165 -116.5 281.5t-281.5 116.5t-281.5 -116.5t-116.5 -281.5z" />
    <glyph glyph-name="unif033" unicode="&#xf033;" 
d="M2048 1536v-384q-184 -31 -338 -104t-269.5 -183.5t-180.5 -266.5t-65 -342h-342q0 186 -65 342t-180.5 266.5t-269.5 183.5t-338 104v384h2048z" />
    <glyph glyph-name="unif034" unicode="&#xf034;" 
d="M2048 1920v-896q-184 -31 -338 -104t-269.5 -183.5t-180.5 -266.5t-65 -342h-342q0 186 -65 342t-180.5 266.5t-269.5 183.5t-338 104v896h2048z" />
    <glyph glyph-name="unif035" unicode="&#xf035;" 
d="M2048 1408v-256q-185 -31 -345 -104t-284 -183.5t-195.5 -267t-71.5 -341.5h-256q0 185 -71.5 341.5t-195.5 267t-284 183.5t-345 104v256h2048z" />
    <glyph glyph-name="unif036" unicode="&#xf036;" 
d="M809 256h476q65 0 111 45.5t46 110.5q0 32 6.5 60t25 62.5t61 67t105.5 58.5q54 22 119 36t95.5 17t42.5 3q63 1 107 47t44 109v618q0 64 -46 110t-110 46h-1736q-66 0 -110 -46q-48 -46 -43 -111v-640q0 -64 45.5 -109.5t110.5 -45.5q283 0 415 -152q61 -69 80 -153
q7 -59 51 -96t104 -37zM1150 569h-227q-39 89 -98 161q-181 223 -512 267v337h1422v-323q-110 -20 -204 -58q-150 -60 -247 -157.5t-134 -226.5z" />
    <glyph glyph-name="unif037" unicode="&#xf037;" 
d="M1024 2048q209 0 398.5 -81t326.5 -218t218 -326.5t81 -398.5t-81 -398.5t-218 -326.5t-326.5 -218t-398.5 -81q-208 0 -397.5 81t-327 218t-218.5 327t-81 398t81 398t218.5 327t327 218t397.5 81zM1024 384q130 0 248.5 50.5t204.5 136.5t136.5 204.5t50.5 248.5
t-50.5 248.5t-136.5 204.5t-204.5 136.5t-248.5 50.5q-174 0 -321 -85.5t-233 -233t-86 -321.5t86 -321.5t233 -233t321 -85.5zM1280 1024q0 106 -75 181t-181 75t-181 -75t-75 -181t75 -181t181 -75t181 75t75 181z" />
    <glyph glyph-name="unif038" unicode="&#xf038;" 
d="M1280 2048v-256h512v-256h-1536v256h512v256h512zM896 1792h256v128h-256v-128zM384 0v1408h1280v-1408h-1280zM768 384h128v640h-128v-640zM1152 384h128v640h-128v-640z" />
    <glyph glyph-name="unif039" unicode="&#xf039;" 
d="M2048 1664h-512l256 384zM1152 1664v256h256v-1920h-1408v1920h256v-256h128v256h256v-256h128v256h256v-256h128zM1536 1536h512v-1536h-512v1536zM256 1152h896v128h-896v-128zM256 896h896v128h-896v-128zM256 640h896v128h-896v-128zM256 384h896v128h-896v-128z" />
    <glyph glyph-name="unif03a" unicode="&#xf03a;" 
d="M0 1408l1024 640l1024 -640h-2048zM512 1280v-768h-128v768h128zM896 1280v-768h-128v768h128zM1280 1280v-768h-128v768h128zM1664 1280v-768h-128v768h128zM1792 256h128v-128h128v-128h-2048v128h128v128h128v128h1536v-128z" />
    <glyph glyph-name="unif03b" unicode="&#xf03b;" 
d="M640 1536v128q0 159 112.5 271.5t271.5 112.5t271.5 -112.5t112.5 -271.5v-1152q0 -87 -12.5 -162t-41.5 -140.5t-72.5 -111t-109 -72t-148.5 -26.5t-148.5 26.5t-109 72t-72.5 111t-41.5 140.5t-12.5 162v768h128v-768q0 -68 6 -121.5t23 -104.5t45 -84.5t74 -53.5
t108 -20t108 20t74 53.5t45 84.5t23 104.5t6 121.5v1152q0 106 -75 181t-181 75t-181 -75t-75 -181v-128h-128z" />
    <glyph glyph-name="unif03c" unicode="&#xf03c;" 
d="M1408 512v768h128v-768q0 -212 -150 -362t-362 -150t-362 150t-150 362v1152q0 159 112.5 271.5t271.5 112.5t271.5 -112.5t112.5 -271.5v-1024q0 -106 -75 -181t-181 -75t-181 75t-75 181v640h128v-640q0 -53 37.5 -90.5t90.5 -37.5t90.5 37.5t37.5 90.5v1024
q0 106 -75 181t-181 75t-181 -75t-75 -181v-1152q0 -159 112.5 -271.5t271.5 -112.5t271.5 112.5t112.5 271.5z" />
    <glyph glyph-name="unif03d" unicode="&#xf03d;" 
d="M768 2048v-1280h256l-512 -768l-512 768h256v1280h512zM1280 0v1280h-256l512 768l512 -768h-256v-1280h-512z" />
    <glyph glyph-name="unif03e" unicode="&#xf03e;" 
d="M1025 641l-168 167q-113 -40 -217 -40q-174 0 -321.5 86t-233 233t-85.5 321q0 130 50.5 248.5t136.5 204.5t204.5 136.5t248.5 50.5q174 0 321 -85.5t233 -233t86 -321.5q0 -105 -41 -217l809 -812v-379h-380zM448 1408q80 0 136 56t56 136t-56 136t-136 56t-136 -56
t-56 -136t56 -136t136 -56zM1280 896l512 -512h128l-640 640v-128z" />
    <glyph glyph-name="unif040" unicode="&#xf040;" 
d="M1408 1409h640v-897h-256v128h-256v-128h-1024v128h-256v-128h-256v897h640v256h768v-256zM1280 1409v128h-512v-128h512zM1792 256v128h256v-384h-2048v384h256v-128h256v128h1024v-128h256z" />
    <glyph glyph-name="unif041" unicode="&#xf041;" 
d="M1024 1205l362 362l181 -181l-362 -362l362 -362l-181 -181l-362 362l-362 -362l-181 181l362 362l-362 362l181 181z" />
    <glyph glyph-name="unif042" unicode="&#xf042;" 
d="M2048 1024l-768 -640h-1280v1280h1280zM409 1491l-178 -177l296 -295l-296 -296l178 -177l295 295l296 -295l177 177l-296 296l296 295l-177 177l-296 -295z" />
    <glyph glyph-name="unif043" unicode="&#xf043;" 
d="M0 1024l768 640h1280v-1280h-1280zM1639 557l178 177l-296 296l296 295l-178 177l-295 -295l-295 295l-178 -177l296 -295l-296 -296l178 -177l295 295z" />
    <glyph glyph-name="unif044" unicode="&#xf044;" 
d="M640 1921l384 -256h1024v-256h-1024l-384 256h-512v256h512zM896 1281h1152v-1281h-2048v1537h512z" />
    <glyph glyph-name="unif045" unicode="&#xf045;" 
d="M1792 2048v-128h256v-256h-256v-128h-384v128h-1408v256h1408v128h384zM256 1280h384v-128h1408v-256h-1408v-128h-384v128h-256v256h256v128zM1408 512h384v-128h256v-256h-256v-128h-384v128h-1408v256h1408v128z" />
    <glyph glyph-name="unif046" unicode="&#xf046;" 
d="M2048 1024q0 209 -81 398.5t-218 326.5t-326.5 218t-398.5 81q-208 0 -397.5 -81t-327 -218t-218.5 -327t-81 -398t81 -398t218.5 -327t327 -218t397.5 -81q209 0 398.5 81t326.5 218t218 326.5t81 398.5z" />
    <glyph glyph-name="unif047" unicode="&#xf047;" 
d="M256 1152l768 896l768 -896h-1536zM1792 896l-768 -896l-768 896h1536z" />
    <glyph glyph-name="unif048" unicode="&#xf048;" 
d="M256 576l768 896l768 -896h-1536z" />
    <glyph glyph-name="unif049" unicode="&#xf049;" 
d="M1792 1472l-768 -896l-768 896h1536z" />
    <glyph glyph-name="unif04a" unicode="&#xf04a;" 
d="M0 2048h2048l-731 -940v-815l-586 -293v1108z" />
    <glyph glyph-name="unif04b" unicode="&#xf04b;" 
d="M1024 2048q209 0 398.5 -81t326.5 -218t218 -326.5t81 -398.5t-81 -398.5t-218 -326.5t-326.5 -218t-398.5 -81q-208 0 -397.5 81t-327 218t-218.5 327t-81 398t81 398t218.5 327t327 218t397.5 81zM1161 1390q76 0 129.5 53.5t53.5 129.5t-53.5 129.5t-129.5 53.5
t-129.5 -53.5t-53.5 -129.5t53.5 -129.5t129.5 -53.5zM704 1024l183 92q-183 -549 -183 -641q0 -26 0.5 -39.5t4 -36t10 -35t19.5 -28.5t32.5 -24t49 -14t67.5 -6q51 0 107.5 28.5t101 68.5t81 80.5t56.5 68.5l20 29l-183 -92q183 549 183 641q0 26 -0.5 39.5t-4 36t-10 35
t-19.5 28t-32.5 23.5t-49 14t-67.5 6q-51 0 -107.5 -28t-101 -68.5t-81 -81t-56.5 -68.5z" />
    <glyph glyph-name="unif04c" unicode="&#xf04c;" 
d="M0 640h1280v1281h-1280v-1281zM1408 640h640q-3 13 -8 36.5t-23.5 90t-39 127t-54.5 134.5t-70.5 127t-86.5 89.5t-102 36.5h-256v-641zM640 256q0 106 -75 181t-181 75t-181 -75t-75 -181t75 -181t181 -75t181 75t75 181zM1920 256q0 106 -75 181t-181 75t-181 -75
t-75 -181t75 -181t181 -75t181 75t75 181z" />
    <glyph glyph-name="unif04d" unicode="&#xf04d;" 
d="M2048 1536v-128h-2048v128q0 106 75 181t181 75h1536q106 0 181 -75t75 -181zM0 512v640h2048v-640q0 -106 -75 -181t-181 -75h-1536q-106 0 -181 75t-75 181zM256 768h384v128h-384v-128zM768 768h512v128h-512v-128zM1408 768h384v128h-384v-128z" />
    <glyph glyph-name="unif04e" unicode="&#xf04e;" 
d="M1024 2048q209 0 398.5 -81t326.5 -218t218 -326.5t81 -398.5t-81 -398.5t-218 -326.5t-326.5 -218t-398.5 -81q-208 0 -397.5 81t-327 218t-218.5 327t-81 398t81 398t218.5 327t327 218t397.5 81zM1148 814v49q0 65 65 115q118 93 162 162.5t44 164.5q0 155 -107 241.5
t-267 86.5q-176 0 -287.5 -94t-128.5 -267l256 -17q6 65 48.5 107t116.5 42q52 0 86 -31.5t34 -85.5q0 -22 -9.5 -43t-31.5 -45t-43 -43.5l-60.5 -55l-68.5 -63.5q-59 -56 -59 -149v-74h250zM1023 415q64 0 108.5 44.5t44.5 108.5t-44.5 108.5t-108.5 44.5t-108.5 -44.5
t-44.5 -108.5t44.5 -108.5t108.5 -44.5z" />
    <glyph glyph-name="unif050" unicode="&#xf050;" 
d="M886 1917v1q69 -70 138.5 -115.5t128 -63.5t114.5 -22t101 9t84.5 31t68.5 41t50 42t31 32l11 14l435 -1047q-6 -8 -16 -20t-44 -43.5t-70 -54.5t-90.5 -41t-108 -16t-120 34t-129.5 97q-324 324 -546 231q-105 -43 -166 -166l-15 -33l-436 1047q6 8 16 20t44 43.5
t70 54.5t90.5 41t108.5 15.5t120.5 -34.5t129.5 -97zM714 0l-714 1757l207 85l713 -1757z" />
    <glyph glyph-name="unif051" unicode="&#xf051;" 
d="M2038 1504l9 -37v-1173l-139 -37l-1 1q0 1 -2 3.5t-3 4.5q-8 12 -20 28q-31 43 -80 87q-141 125 -308 125q-162 0 -297 -118q-68 -61 -107 -127q-20 -42 -67 -42q-46 0 -66 40q-1 1 -2.5 3.5t-2.5 3.5q-16 24 -19 28q-37 49 -81 87q-141 125 -308 125q-162 0 -297 -118
q-31 -27 -58 -60t-37 -48.5t-13 -21.5h-1l-140 36v1173l9 36q54 91 133 163q177 163 404 163q228 0 407 -163q37 -32 71 -71q27 33 68 71q177 163 404 163q226 0 407 -163q85 -76 137 -162zM948 496v949l-15 22q-41 53 -81 87q-141 125 -308 125q-162 0 -297 -118
q-58 -52 -99 -115v-946q176 156 396 156q224 0 404 -160zM1898 496v949l-16 22q-35 47 -80 87q-141 125 -308 125q-162 0 -297 -118q-57 -50 -99 -115v-946q176 156 396 156q224 0 404 -160zM1263 1282l-70 92q5 4 16 11.5t40 20.5t63.5 24t88 19t110.5 8t110.5 -8t88 -18.5
t65 -24.5t40.5 -20t17 -11l-68 -93q-1 0 -2 1l-10 6q-26 13 -47 21q-84 32 -194 32q-73 0 -136 -16t-82.5 -26.5t-29.5 -17.5zM307 1033l-70 92l16 11t40 20t64 24.5t87 19t111 8.5q91 0 170.5 -21t110.5 -37.5t39 -24.5l-49 -67l-18 -26q-1 1 -2 1q-3 3 -10 6
q-20 12 -47 21q-87 33 -194 33q-158 0 -248 -60zM1263 1033l-70 92l16 11t40 20t64 24.5t87 19t111 8.5q91 0 171 -21t109.5 -37t40.5 -25l-49 -67l-19 -26q-1 1 -2 1q-3 3 -10 6q-20 12 -47 21q-87 33 -194 33q-153 0 -246 -59z" />
    <glyph glyph-name="unif052" unicode="&#xf052;" 
d="M887 1186v819q0 57 40 97t97 40q56 0 96 -40t40 -97v-819q0 -56 -40 -96t-96 -40q-57 0 -97 40t-40 96zM1700 1725q137 -137 209 -316t72 -359.5t-72 -359.5t-209 -316q-137 -138 -316 -209.5t-360 -71.5t-360 71.5t-316 209.5q-137 137 -209 316t-72 359.5t72 359.5
t209 316q40 41 96.5 41t96.5 -41q41 -40 41 -96.5t-41 -96.5q-131 -131 -177.5 -306.5t0 -351.5t177.5 -307t307 -178t352 0t307 178t177.5 307t0 351.5t-177.5 306.5q-41 40 -41 96.5t41 96.5q40 41 96.5 41t96.5 -41z" />
    <glyph glyph-name="unif053" unicode="&#xf053;" 
d="M1024 2048q209 0 398.5 -81t326.5 -218t218 -326.5t81 -398.5t-81 -398.5t-218 -326.5t-326.5 -218t-398.5 -81q-208 0 -397.5 81t-327 218t-218.5 327t-81 398t81 398t218.5 327t327 218t397.5 81zM896 896h256v768h-256v-768zM896 384h256v256h-256v-256z" />
    <glyph glyph-name="unif054" unicode="&#xf054;" 
d="M1024 1408l640 640l384 -384l-640 -640l640 -640l-384 -384l-640 640l-640 -640l-384 384l640 640l-640 640l384 384z" />
    <glyph glyph-name="unif055" unicode="&#xf055;" 
d="M1280 1280h768v-512h-768v-768h-512v768h-768v512h768v768h512v-768z" />
    <glyph glyph-name="unif056" unicode="&#xf056;" 
d="M256 768l-256 -256l640 -512l1408 1792l-1408 -1280z" />
    <glyph glyph-name="unif057" unicode="&#xf057;" 
d="M0 1280h2048v-512h-2048v512z" />
    <glyph glyph-name="unif058" unicode="&#xf058;" 
d="M1024 1024l683 683l341 -342l-1024 -1024l-1024 1024l341 342z" />
    <glyph glyph-name="unif059" unicode="&#xf059;" 
d="M1024 1024l-683 -683l-341 342l1024 1024l1024 -1024l-341 -342z" />
    <glyph glyph-name="unif05a" unicode="&#xf05a;" 
d="M1024 1024l-683 683l342 341l1024 -1024l-1024 -1024l-342 342z" />
    <glyph glyph-name="unif05b" unicode="&#xf05b;" 
d="M1024 1024l683 -683l-342 -341l-1024 1024l1024 1024l342 -341z" />
    <glyph glyph-name="unif05c" unicode="&#xf05c;" 
d="M1024 512l-1024 1024h2048z" />
    <glyph glyph-name="unif05d" unicode="&#xf05d;" 
d="M1024 1536l1024 -1024h-2048z" />
    <glyph glyph-name="unif05e" unicode="&#xf05e;" 
d="M1536 1024l-1024 -1024v2048z" />
    <glyph glyph-name="unif060" unicode="&#xf060;" 
d="M512 1024l1024 1024v-2048z" />
    <glyph glyph-name="unif061" unicode="&#xf061;" 
d="M1348 919l188 -151q5 0 14.5 -1t38.5 -7.5t58 -18.5t69 -38.5t76 -62.5t75.5 -115t70.5 -166.5t56.5 -169.5t39.5 -135l14 -54h-2048q5 21 14.5 56t38.5 130.5t58 175t69 161t76 117.5t75.5 62.5t70.5 38.5t56.5 18.5t39.5 7.5l14 1l184 152h102l27 104q-6 8 -28.5 41.5
l-37.5 56.5t-32.5 54t-24.5 51q-37 -9 -63 17.5t-21 113.5q-25 61 -33 107t-3 69.5t19.5 37.5t28 17.5t29.5 2.5q3 86 12 148t32.5 123.5t62.5 99.5t104 61.5t154 23.5t154 -23.5t104 -61.5t62.5 -99t32.5 -123.5t12 -148.5q16 0 29.5 -4t26.5 -18.5t17 -39t-4.5 -69
t-32.5 -103.5q2 -46 -4.5 -76t-19.5 -41t-28 -15.5t-29 0.5q-25 -64 -118 -202l25 -105h97z" />
    <glyph glyph-name="unif062" unicode="&#xf062;" 
d="M1429 891l619 -619l-272 -272l-619 619q-182 -107 -389 -107q-209 0 -385.5 103t-279.5 279.5t-103 385.5t103 385.5t279.5 279.5t385.5 103t385.5 -103t279.5 -279.5t103 -385.5q0 -210 -107 -389zM256 1280q0 -212 150 -362t362 -150t362 150t150 362t-150 362
t-362 150t-362 -150t-150 -362z" />
    <glyph glyph-name="unif063" unicode="&#xf063;" 
d="M0 512v1536h2048v-1536h-384v-512l-512 512h-1152zM384 1408h1280v128h-1280v-128zM384 1024h1280v128h-1280v-128z" />
    <glyph glyph-name="unif064" unicode="&#xf064;" 
d="M2048 1216v-384h-281q-27 -105 -82 -198l199 -198l-272 -272l-198 199q-93 -55 -198 -82v-281h-384v281q-103 26 -197 82l-199 -199l-272 272l199 198q-55 93 -82 198h-281v384h281q27 105 82 198l-199 198l272 272l199 -199q94 56 197 82v281h384v-281q105 -27 198 -82
l198 199l272 -272l-199 -198q55 -93 82 -198h281zM1408 1024q0 159 -112.5 271.5t-271.5 112.5t-271.5 -112.5t-112.5 -271.5t112.5 -271.5t271.5 -112.5t271.5 112.5t112.5 271.5z" />
    <glyph glyph-name="unif065" unicode="&#xf065;" 
d="M2048 1536l-512 512l-1280 -1280l512 -512zM128 640l-128 -640l640 128z" />
    <glyph glyph-name="unif066" unicode="&#xf066;" 
d="M0 1408h2048l-1024 -768zM0 0v1152l1024 -768l1024 768v-1152h-2048z" />
    <glyph glyph-name="unif067" unicode="&#xf067;" 
d="M0 1408l1024 640l1024 -640l-1024 -768zM0 0v1152l1024 -768l1024 768v-1152h-2048z" />
    <glyph glyph-name="unif068" unicode="&#xf068;" 
d="M384 256v1536l640 256v-2048zM1152 256h512v1536h-512v-1536zM832 896q26 0 45 37.5t19 90.5t-19 90.5t-45 37.5t-45 -37.5t-19 -90.5t19 -90.5t45 -37.5z" />
    <glyph glyph-name="unif069" unicode="&#xf069;" 
d="M1909 1747q298 -307 -37 -804q-213 -315 -640 -658q-122 -98 -208 -157l-51 36t-127.5 97.5t-183.5 151.5t-200 189.5t-198 219.5t-156.5 234.5t-96 241.5t3.5 232.5t124 216.5q259 267 563 125q158 -74 294 -237l28 -35q9 13 26 34t71 75t110.5 95.5t140.5 77t166 39.5
t181 -38t190 -136z" />
    <glyph glyph-name="unif06a" unicode="&#xf06a;" 
d="M1213 2048q281 0 488.5 -77.5t322.5 -192.5q28 -28 19.5 -79.5t-44.5 -110t-89 -122.5t-115 -115.5t-122 -89t-110.5 -44t-79.5 19.5q-36 37 -66 94t-49 108.5t-39.5 99t-49 76t-66.5 28.5q-64 0 -263.5 -174t-373.5 -373.5t-174 -263.5q0 -46 45.5 -80.5t105.5 -54
t135.5 -55.5t119.5 -80q28 -28 19.5 -79.5t-44.5 -110t-89 -122.5t-115 -115t-122 -89t-110.5 -44t-79.5 20q-115 115 -192.5 322t-77.5 488q0 98 62.5 230.5t162.5 265t231.5 264t264 231.5t265 162.5t230.5 62.5z" />
    <glyph glyph-name="unif06b" unicode="&#xf06b;" 
d="M2048 0h-512q0 209 -55 408t-154 367.5t-241 310.5t-310.5 241t-367.5 154t-408 55v512q278 0 544 -73.5t490.5 -205.5t413.5 -321t321 -413.5t205.5 -490.5t73.5 -544zM1280 0h-512q0 209 -103 385.5t-279.5 279.5t-385.5 103v512q174 0 340 -46t306.5 -128.5
t258.5 -200.5t200.5 -258.5t128.5 -306.5t46 -340zM448 224q0 -93 -65.5 -158.5t-158.5 -65.5t-158.5 65.5t-65.5 158.5t65.5 158.5t158.5 65.5t158.5 -65.5t65.5 -158.5z" />
    <glyph glyph-name="unif06c" unicode="&#xf06c;" 
d="M1662 936l273 -274q113 -113 113 -273t-113 -273t-273.5 -113t-273.5 113l-273 273q-88 88 -107 210t33 229l-216 216q-106 -53 -228.5 -33.5t-210.5 107.5l-273 273q-113 113 -113 273.5t113 273.5t273.5 113t273.5 -113l273 -274q88 -88 107.5 -210t-33.5 -228
l216 -216q106 52 228.5 33t210.5 -107zM751 1482l-273 273q-38 38 -91.5 38t-91.5 -38q-37 -37 -37 -90.5t37 -91.5l274 -273q22 -22 59 -32q-19 74 32 123q51 51 122 32q-9 37 -31 59zM1297 571l273 -273q38 -38 91.5 -38t91.5 38q37 38 37 91t-37 91l-274 274
q-22 22 -59 31q19 -73 -32 -122q-49 -51 -122 -32q9 -38 31 -60z" />
    <glyph glyph-name="unif06d" unicode="&#xf06d;" 
d="M1024 2048q208 0 398 -81t327 -218.5t218 -327t81 -397.5q0 -209 -81 -398.5t-218 -326.5t-326.5 -218t-398.5 -81t-398.5 81t-326.5 218t-218 326.5t-81 398.5q0 208 81 397.5t218 327t327 218.5t398 81zM399 579l1070 1070q-200 143 -445 143q-209 0 -385.5 -103
t-279.5 -279.5t-103 -385.5q0 -245 143 -445zM1650 1468l-1070 -1070q199 -142 444 -142q209 0 385.5 103t279.5 279.5t103 385.5q0 245 -142 444z" />
    <glyph glyph-name="unif06e" unicode="&#xf06e;" 
d="M1024 2048q149 0 276 -43t216 -116.5t152.5 -172t93.5 -209t30 -227.5q0 -104 -42.5 -231.5t-110 -247t-149.5 -240t-164 -219.5l-149.5 -177t-110.5 -121l-42 -44l-43.5 45l-107.5 118.5t-152.5 179.5t-161 217.5t-152.5 243t-107.5 244t-43.5 232.5q0 117 30 227.5
t93.5 209t152.5 172t216 116.5t276 43zM1024 896q159 0 271.5 112.5t112.5 271.5t-112.5 271.5t-271.5 112.5t-271.5 -112.5t-112.5 -271.5t112.5 -271.5t271.5 -112.5z" />
    <glyph glyph-name="unif070" unicode="&#xf070;" 
d="M1761 1024v320h288v-1088q0 -106 -75 -181t-181 -75h-583q4 38 4 57q0 175 -58 280t-224 230l-16 11q-176 132 -176 177q0 49 22 83t105 99q218 170 218 396q0 109 -35.5 202.5t-99.5 157.5h102l9 10l155 163l52 54h-769q-141 0 -271.5 -52t-228.5 -143v67
q0 106 75.5 181t182.5 75h1536q106 0 181 -75t75 -181v-224h-288v320h-224v-320h-320v-224h320v-320h224zM742 1319q26 -195 -61 -295q-60 -68 -160 -68q-5 0 -8 1q-135 4 -240 117t-126 277q-13 96 6.5 178.5t68.5 137.5q65 76 165 76h7q125 -4 225 -125t123 -299zM-1 446
v474q153 -133 379 -133h17q-19 -51 -19 -101q0 -79 58 -150h-52q-208 0 -383 -90zM466 390h7q86 0 167 -26l60 -41q75 -51 110 -77t70.5 -67t46.5 -84q8 -35 8 -67q0 -5 -0.5 -14.5t-0.5 -13.5h-677q-79 0 -143 43t-94 113q53 102 176.5 168t269.5 66z" />
    <glyph glyph-name="unif071" unicode="&#xf071;" 
d="M256 2048h1536q106 0 181 -75t75 -181v-1536q0 -106 -75 -181t-181 -75h-1536q-106 0 -181 75t-75 181v1536q0 106 75 181t181 75zM1457 899h281l13 271h-294v185v13q0 62 22.5 91t90.5 29l173 -1l7 253q-81 11 -191 11q-98 0 -174.5 -28.5t-122.5 -78t-69 -111
t-23 -131.5v-232h-199v-271h199v-753h287v753z" />
    <glyph glyph-name="unif072" unicode="&#xf072;" 
d="M256 2048h1536q106 0 181 -75t75 -181v-1536q0 -106 -75 -181t-181 -75h-1536q-106 0 -181 75t-75 181v1536q0 106 75 181t181 75zM1651 1345q96 70 161 168q-87 -39 -186 -51q105 63 142 179q-95 -57 -205 -79q-96 102 -236 102q-134 0 -228.5 -94.5t-94.5 -228.5
q0 -36 8 -74q-198 10 -371.5 99.5t-294.5 238.5q-44 -75 -44 -162q0 -83 39 -154t105 -115q-77 1 -146 40v-4q0 -117 73.5 -205.5t185.5 -111.5q-42 -11 -85 -11q-28 0 -61 5q31 -97 114 -160t188 -64q-176 -138 -402 -138q-42 0 -77 4q225 -145 496 -145q144 0 274 38.5
t229 105t179 156t131.5 192t78.5 211.5t27 217v41z" />
    <glyph glyph-name="unif073" unicode="&#xf073;" 
d="M2048 1281l-384 -385h-908l-88 -256h1266q46 0 80 -39.5t34 -88.5t-34 -88.5t-80 -39.5h-1580l164 512l-308 896h-95q-47 0 -81 39.5t-34 88.5t34 88.5t81 39.5h255l88 -256h1590v-511z" />
    <glyph glyph-name="unif074" unicode="&#xf074;" 
d="M2048 1659q-86 -129 -210 -217q2 -36 2 -55q0 -168 -49 -337t-150 -323.5t-241 -273.5t-336 -190t-420 -71q-350 0 -644 188q55 -5 100 -5q292 0 522 179q-137 3 -244.5 84t-147.5 208q35 -7 79 -7q56 0 110 14q-145 30 -241 145.5t-96 267.5v5q89 -50 191 -53
q-86 58 -136.5 150t-50.5 200q0 113 57 211q158 -194 383 -310t483 -129q-11 49 -11 96q0 174 123 297t297 123q89 0 168.5 -35t138.5 -97q140 26 267 101q-49 -151 -185 -232q124 15 241 66z" />
    <glyph glyph-name="unif075" unicode="&#xf075;" 
d="M1776 0l-618 619q-181 -107 -390 -107t-385.5 103t-279.5 279.5t-103 385.5t103 385.5t279.5 279.5t385.5 103t385.5 -103t279.5 -279.5t103 -385.5t-107 -390l619 -619zM768 768q212 0 362 150t150 362t-150 362t-362 150t-362 -150t-150 -362t150 -362t362 -150z
M683 1536h170v-171h171v-170h-171v-171h-170v171h-171v170h171v171z" />
    <glyph glyph-name="unif076" unicode="&#xf076;" 
d="M1429 890l619 -619l-272 -271l-618 619q-181 -107 -390 -107t-385.5 103t-279.5 279.5t-103 385.5t103 385.5t279.5 279.5t385.5 103t385.5 -103t279.5 -279.5t103 -385.5t-107 -390zM256 1280q0 -212 150 -362t362 -150t362 150t150 362t-150 362t-362 150t-362 -150
t-150 -362zM512 1195h512v170h-512v-170z" />
    <glyph glyph-name="unif077" unicode="&#xf077;" 
d="M0 0v2048h2048v-2048h-2048zM256 1408h256v256h-256v-256zM768 1408h1024v256h-1024v-256zM256 896h256v256h-256v-256zM768 896h1024v256h-1024v-256zM256 384h256v256h-256v-256zM768 384h1024v256h-1024v-256z" />
    <glyph glyph-name="unif078" unicode="&#xf078;" 
d="M0 0v2048h2048v-2048h-2048zM384 1152h512v512h-512v-512zM1152 1152h512v512h-512v-512zM384 384h512v512h-512v-512zM1152 384h512v512h-512v-512z" />
    <glyph glyph-name="unif079" unicode="&#xf079;" 
d="M1152 1920v-138q215 -31 390.5 -155.5t276.5 -316.5t101 -414q0 -182 -71 -348t-191 -286t-286 -191t-348 -71t-348 71t-286 191t-191 286t-71 348q0 222 101 414t276.5 316.5t390.5 155.5v138h-128v128h512v-128h-128zM1024 299q162 0 299.5 80t217.5 217.5t80 299.5
t-80 299.5t-217.5 217.5t-299.5 80t-299.5 -80t-217.5 -217.5t-80 -299.5t80 -299.5t217.5 -217.5t299.5 -80zM912 768h224v640h-224v-640z" />
    <glyph glyph-name="unif07a" unicode="&#xf07a;" 
d="M1024 2048q208 0 398 -81t327 -218.5t218 -327t81 -397.5q0 -209 -81 -398.5t-218 -326.5t-326.5 -218t-398.5 -81t-398.5 81t-326.5 218t-218 326.5t-81 398.5q0 208 81 397.5t218 327t327 218.5t398 81zM1024 256q209 0 385.5 103t279.5 279.5t103 385.5t-103 385.5
t-279.5 279.5t-385.5 103t-385.5 -103t-279.5 -279.5t-103 -385.5t103 -385.5t279.5 -279.5t385.5 -103zM1152 1664v-512h512v-256h-768v768h256z" />
    <glyph glyph-name="unif07b" unicode="&#xf07b;" 
d="M256 1792v256h1536v-256h-256v-320q0 -189 -143 -318.5t-369 -129.5t-369 129.5t-143 318.5v320h-256zM1408 1408h-768q0 -106 112.5 -181t271.5 -75t271.5 75t112.5 181zM512 256v320q0 189 143 318.5t369 129.5t369 -129.5t143 -318.5v-320h256v-256h-1536v256h256z
M640 256h768v256h-768v-256z" />
    <glyph glyph-name="unif07c" unicode="&#xf07c;" 
d="M1792 2048l256 -640q0 -70 -35 -128t-93 -93v-1187h-1792v1187q-58 35 -93 93t-35 128l256 640h1536zM384 1187v-675h1280v675q-58 35 -93 93t-35 128q0 -106 -75 -181t-181 -75t-181 75t-75 181q0 -106 -75 -181t-181 -75t-181 75t-75 181q0 -70 -35 -128t-93 -93z" />
    <glyph glyph-name="unif07d" unicode="&#xf07d;" 
d="M1565 483v965h483v-1448h-1448v483h965z" />
    <glyph glyph-name="unif07e" unicode="&#xf07e;" 
d="M483 483h965v-483h-1448v1448h483v-965z" />
    <glyph glyph-name="unif080" unicode="&#xf080;" 
d="M1565 1565h-965v483h1448v-1448h-483v965z" />
    <glyph glyph-name="unif081" unicode="&#xf081;" 
d="M483 1565v-965h-483v1448h1448v-483h-965z" />
    <glyph glyph-name="unif082" unicode="&#xf082;" 
d="M2048 0h-1448l1448 1448v-1448z" />
    <glyph glyph-name="unif083" unicode="&#xf083;" 
d="M0 0v1448l1448 -1448h-1448z" />
    <glyph glyph-name="unif084" unicode="&#xf084;" 
d="M2048 2048v-1448l-1448 1448h1448z" />
    <glyph glyph-name="unif085" unicode="&#xf085;" 
d="M0 2048h1448l-1448 -1448v1448z" />
    <glyph glyph-name="unif086" unicode="&#xf086;" 
d="M512 1536v512h256v-768h-768v256h512zM1536 1536h512v-256h-768v768h256v-512zM512 512h-512v256h768v-768h-256v512zM1536 512v-512h-256v768h768v-256h-512z" />
    <glyph glyph-name="unif087" unicode="&#xf087;" 
d="M256 1792v-512h-256v768h768v-256h-512zM1792 1792h-512v256h768v-768h-256v512zM256 256h512v-256h-768v768h256v-512zM1792 256v512h256v-768h-768v256h512z" />
    <glyph glyph-name="unif088" unicode="&#xf088;" 
d="M768 1280h-768l768 768v-768zM1280 1280v768l768 -768h-768zM768 768v-768l-768 768h768zM1280 768h768l-768 -768v768z" />
    <glyph glyph-name="unif089" unicode="&#xf089;" 
d="M0 2048h768l-768 -768v768zM2048 2048v-768l-768 768h768zM0 0v768l768 -768h-768zM2048 0h-768l768 768v-768z" />
    <glyph glyph-name="unif08a" unicode="&#xf08a;" 
d="M0 0v2048h2048v-2048h-2048zM128 128h1792v1792h-1792v-1792zM384 896v256h1280v-256h-1280z" />
    <glyph glyph-name="unif08b" unicode="&#xf08b;" 
d="M0 0v2048h2048v-2048h-2048zM128 128h1792v1792h-1792v-1792zM896 1152v512h256v-512h512v-256h-512v-512h-256v512h-512v256h512z" />
    <glyph glyph-name="unif08c" unicode="&#xf08c;" 
d="M0 1536h512v512h-512v-512zM768 1536h1280v512h-1280v-512zM0 768h512v512h-512v-512zM768 768h1280v512h-1280v-512zM0 0h512v512h-512v-512zM768 0h1280v512h-1280v-512z" />
    <glyph glyph-name="unif08d" unicode="&#xf08d;" 
d="M0 1152h896v896h-896v-896zM1152 1152h896v896h-896v-896zM0 0h896v896h-896v-896zM1152 0h896v896h-896v-896z" />
    <glyph glyph-name="unif08e" unicode="&#xf08e;" 
d="M1408 2048v-1024h384l-768 -1024l-768 1024h384v1024h768z" />
    <glyph glyph-name="unif090" unicode="&#xf090;" 
d="M0 1408h1024v384l1024 -768l-1024 -768v384h-1024v768z" />
    <glyph glyph-name="unif091" unicode="&#xf091;" 
d="M2048 640h-1024v-384l-1024 768l1024 768v-384h1024v-768z" />
    <glyph glyph-name="unif092" unicode="&#xf092;" 
d="M640 0v1024h-384l768 1024l768 -1024h-384v-1024h-768z" />
    <glyph glyph-name="unif093" unicode="&#xf093;" 
d="M1664 0h-1664v2048h1664v-2048zM1792 1408v512h256v-512h-256zM2048 768h-256v512h256v-512zM2048 128h-256v512h256v-512z" />
    <glyph glyph-name="unif094" unicode="&#xf094;" 
d="M1084 1334l90 -91l-543 -543q-37 -38 -37 -91t37 -90t90 -37t91 37l634 634v-1l271 272q75 75 75 181t-75 181t-181 75t-181 -75l-724 -724l-272 -271q-112 -113 -112 -272t112 -272q113 -112 272 -112t272 112l633 634l91 -90l-634 -634q-98 -98 -230 -133t-264 0
t-230 133t-133 230t0 264t133 230l996 996q74 74 172.5 100t197.5 0t173 -100q112 -113 112 -272t-112 -271l-905 -905q-76 -76 -182 -75.5t-180 75.5q-76 75 -76 181t76 181z" />
    <glyph glyph-name="unif095" unicode="&#xf095;" 
d="M1920 128h-1024q-5 0 -14.5 0.5t-36 5.5t-50.5 14t-53.5 28t-51 45t-36 68.5t-14.5 94.5v768q0 5 1 14.5t7.5 38.5t18.5 58t38.5 69t62.5 76q70 70 125 163.5t85 173.5l56 150.5t54.5 111.5t63.5 41q26 0 47 -7t34 -18.5t23 -25t14 -27t6.5 -25t3.5 -18.5v-7
q0 -64 -64 -256t-64 -256q0 -96 80 -176t176 -80h512q5 0 13.5 -1t31 -7.5t39 -18.5t30.5 -38.5t14 -62.5q0 -26 -7 -47t-18.5 -34t-25 -23t-27 -14t-25 -6.5t-18.5 -3.5h-7q5 0 13.5 -1t31 -7.5t39 -18.5t30.5 -38.5t14 -62.5q0 -26 -7 -47t-18.5 -34t-25 -23t-27 -14
t-25 -6.5t-18.5 -3.5h-7q5 0 13.5 -1t31 -7.5t39 -18.5t30.5 -38.5t14 -62.5q0 -26 -7 -47t-18.5 -34t-25 -23t-27 -14t-25 -6.5t-18.5 -3.5h-7q5 0 13.5 -1t31 -7.5t39 -18.5t30.5 -38.5t14 -62.5q0 -26 -7 -47t-18.5 -34t-25 -23t-27 -14t-25 -6.5t-18.5 -3.5h-7zM0 0
v1152h512v-1152h-512z" />
    <glyph glyph-name="unif096" unicode="&#xf096;" 
d="M1536 2048h512v-1152h-512v1152zM128 1920h1024q5 0 14.5 -0.5t36 -5.5t50.5 -14t53.5 -28t51 -45t36 -68.5t14.5 -94.5v-768q0 -5 -1 -14.5t-7.5 -38.5t-18.5 -58t-38.5 -69t-62.5 -76q-70 -70 -125 -163.5t-85 -173.5l-56 -150.5t-54.5 -111.5t-63.5 -41q-26 0 -47 7
t-34 18.5t-23 25t-14 27t-6.5 25t-3.5 18.5v7q0 64 64 256t64 256q0 96 -80 176t-176 80h-512q-5 0 -13.5 1t-31 7.5t-39 18.5t-30.5 38.5t-14 62.5q0 26 7 47t18.5 34t25 23t27 14t25 6.5t18.5 3.5h7q-5 0 -13.5 1t-31 7.5t-39 18.5t-30.5 38.5t-14 62.5q0 26 7 47t18.5 34
t25 23t27 14t25 6.5t18.5 3.5h7q-5 0 -13.5 1t-31 7.5t-39 18.5t-30.5 38.5t-14 62.5q0 26 7 47t18.5 34t25 23t27 14t25 6.5t18.5 3.5h7q-5 0 -13.5 1t-31 7.5t-39 18.5t-30.5 38.5t-14 62.5q0 26 7 47t18.5 34t25 23t27 14t25 6.5t18.5 3.5h7z" />
    <glyph glyph-name="unif097" unicode="&#xf097;" 
d="M768 256h-640q-5 0 -13.5 1t-31 7.5t-39 18.5t-30.5 38.5t-14 62.5q0 26 7 47t18.5 34t25 23t27 14t25 6.5t18.5 3.5h7l27.5 58.5t61.5 153.5t78 231.5t61.5 276.5t27.5 304q0 53 14 100t50 95.5t92.5 84.5t147.5 63t209 36q0 1 -0.5 2.5t-0.5 2.5q0 53 37.5 90.5
t90.5 37.5t90.5 -37.5t37.5 -90.5q0 -1 -0.5 -2.5t-0.5 -2.5q118 -9 209 -36t147.5 -63t92.5 -84.5t50 -95.5t14 -100q0 -143 26.5 -301.5t64 -282t75 -226t64.5 -158.5l26 -56q5 0 13.5 -1t31 -7.5t39 -18.5t30.5 -38.5t14 -62.5q0 -26 -7 -47t-18.5 -34t-25 -23t-27 -14
t-25 -6.5t-18.5 -3.5h-7h-640q0 -106 -75 -181t-181 -75t-181 75t-75 181z" />
    <glyph glyph-name="unif098" unicode="&#xf098;" 
d="M1798 768q36 -182 4 -322t-125.5 -236.5t-243 -149t-348.5 -58.5q110 4 184 49.5t90 115t-25 153.5q-49 90 -83.5 195.5t-49 192t-21.5 160t-6 114.5v42l-38 -36.5t-86.5 -96t-113 -144.5t-99 -172.5t-63.5 -190.5q-27 -163 45.5 -271.5t235.5 -111.5q-4 0 -12 -0.5
t-13 -0.5q-139 0 -260 29.5t-210 81.5t-150 125t-85 157t-8.5 181t73.5 194q108 179 187 377t115 352t56.5 282.5t23.5 198.5l2 70q19 -13 51.5 -37.5t128 -103.5t184.5 -161.5t202 -204.5t200.5 -240t159.5 -260t98 -273z" />
    <glyph glyph-name="unif099" unicode="&#xf099;" 
d="M0 444l90 -90l928 927l940 -940l90 90l-1030 1031z" />
    <glyph glyph-name="unif09a" unicode="&#xf09a;" 
d="M2048 1359l-90 90l-928 -927l-940 940l-90 -90l1030 -1031z" />
    <glyph glyph-name="unif09b" unicode="&#xf09b;" 
d="M567 2048l-90 -90l927 -928l-940 -940l91 -90l1030 1030z" />
    <glyph glyph-name="unif09c" unicode="&#xf09c;" 
d="M1482 0l90 90l-927 928l940 940l-90 90l-1031 -1030z" />
    <glyph glyph-name="unif09d" unicode="&#xf09d;" 
d="M0 1533h2048v512h-2048v-512zM0 767h2048v511h-2048v-511zM0 0h2048v511h-2048v-511z" />
    <glyph glyph-name="unif09e" unicode="&#xf09e;" 
d="M0 0h2048v1406h-2048v-1406zM1920 128h-1792v1150h1792v-1150zM594 700q-88 0 -150.5 62.5t-62.5 150.5t62.5 151t150.5 63t151 -62.5t63 -151.5q0 -88 -63 -150.5t-151 -62.5zM1789 253h-1536l19.5 27.5t51 61.5t77 78t92 61.5t101.5 27.5q57 0 101.5 -13.5t69.5 -29
t69.5 -29t101.5 -13.5q39 0 79 25.5t72.5 63l72.5 82t79 82t94 63t115 25.5q52 0 99 -28t80.5 -73.5t62 -100t46 -109t30.5 -100t18 -73.5z" />
    <glyph glyph-name="unif0a0" unicode="&#xf0a0;" 
d="M1024 1365l-1017 -1017l7 -7l1010 1010l1010 -1010l7 7z" />
    <glyph glyph-name="unif0a1" unicode="&#xf0a1;" 
d="M1024 341l1017 1017l-7 7l-1010 -1010l-1010 1010l-7 -7z" />
    <glyph glyph-name="unif0a2" unicode="&#xf0a2;" 
d="M1536 1017l-1017 1017l-7 -7l1010 -1010l-1010 -1010l7 -7z" />
    <glyph glyph-name="unif0a3" unicode="&#xf0a3;" 
d="M512 1017l1017 -1017l7 7l-1010 1010l1010 1010l-7 7z" />
    <glyph glyph-name="unif0a4" unicode="&#xf0a4;" 
d="M1025 2048q125 0 253 -40.5t240 -111t210.5 -168.5t168.5 -210.5t110.5 -240.5t40.5 -254q0 -125 -40.5 -253t-110.5 -240t-168.5 -210.5t-210.5 -168.5t-240 -110.5t-253 -40.5t-253 40.5t-240 110.5t-211 168.5t-169.5 210.5t-111 240t-40.5 253q0 126 40.5 254
t111 240t169.5 210.5t211 169t240 111t253 40.5zM641 384h768v383h383l-767 1025l-767 -1025h383v-383z" />
    <glyph glyph-name="unif0a5" unicode="&#xf0a5;" 
d="M1024 0q-209 0 -398.5 81t-326.5 218t-218 326.5t-81 398.5t81 398.5t218 326.5t326.5 218t398.5 81t398.5 -81t326.5 -218t218 -326.5t81 -398.5t-81 -398.5t-218 -326.5t-326.5 -218t-398.5 -81zM1408 1655h-768v-380h-384l768 -1024l768 1024h-384v380z" />
    <glyph glyph-name="unif0a6" unicode="&#xf0a6;" 
d="M2048 1024q0 -209 -81 -398.5t-218 -326.5t-326.5 -218t-398.5 -81t-398.5 81t-326.5 218t-218 326.5t-81 398.5t81 398.5t218 326.5t326.5 218t398.5 81t398.5 -81t326.5 -218t218 -326.5t81 -398.5zM393 1408v-768h380v-384l1024 768l-1024 768v-384h-380z" />
    <glyph glyph-name="unif0a7" unicode="&#xf0a7;" 
d="M0 1028q0 125 40.5 252.5t111 239t169 209.5t211 168t241 110.5t255.5 40.5q187 0 374 -88.5t328 -229.5t229.5 -328t88.5 -374q0 -127 -40.5 -256t-110.5 -241t-168 -211t-209.5 -169t-239 -110.5t-252.5 -40.5q-127 0 -255.5 40.5t-241 110.5t-211 169t-169 211
t-111 241t-40.5 256zM1663 642v769h-383v385l-1021 -768l1021 -769v383h383z" />
    <glyph glyph-name="unif0a8" unicode="&#xf0a8;" 
d="M1520 2035l-8 -324q-106 2 -221 2q-87 0 -116 -37t-29 -117v-2v-3v-2v-8v-237h376l-16 -346h-360v-961h-365v961h-255v346h255v295q0 90 29.5 168.5t88 141.5t155.5 99.5t222 36.5q63 0 124 -3t90 -7z" />
    <glyph glyph-name="unif0a9" unicode="&#xf0a9;" 
d="M305 2048h1438q126 0 215.5 -89t89.5 -216v-1438q0 -126 -89.5 -215.5t-215.5 -89.5h-1438q-126 0 -215.5 89.5t-89.5 215.5v1438q0 127 89.5 216t215.5 89zM305 130h1438q73 0 124 51t51 124v901l-274 -230l-9 -8l-11 -9q13 -26 8.5 -56t-25.5 -51l-462 -462
q-28 -28 -67 -28t-67 28l-384 385q-52 0 -105 14q-6 2 -10 3q-146 42 -231 160q-103 145 -74 320.5t174 278.5q110 80 249 80q92 0 175.5 -38.5t144.5 -108.5q2 -3 13.5 -14t16.5 -18q2 -3 6 -11t7 -12l18 18q28 28 67 28t67 -28l118 -118l111 155l311 434h-1380
q-73 0 -124 -51t-51 -124v-1438q0 -73 51 -124t124 -51zM1088 651l830 700v392q0 53 -29 96.5t-76 64.5l-718 -986q-26 -29 -47 -2q-8 8 -119 155q38 82 25 176.5t-75 167.5q-46 55 -111.5 84.5t-137.5 29.5q-120 0 -212 -78q-103 -88 -114 -223t78 -239q47 -54 112 -84
t137 -30q58 0 116 22l306 -246q17 -15 35 0z" />
    <glyph glyph-name="unif0aa" unicode="&#xf0aa;" 
d="M384 1536h1280q158 0 271 -113t113 -271v-768q0 -158 -113 -271t-271 -113h-1280q-158 0 -271 113t-113 271v768q0 158 113 271t271 113zM768 1280v-1024l640 512z" />
    <glyph glyph-name="unif0ab" unicode="&#xf0ab;" 
d="M305 2048h1438q126 0 215.5 -89t89.5 -216v-1438q0 -126 -89.5 -215.5t-215.5 -89.5h-1438q-126 0 -215.5 89.5t-89.5 215.5v1438q0 127 89.5 216t215.5 89zM1088 651l830 700v392q0 53 -29 96.5t-76 64.5l-718 -986q-25 -28 -48 -2q-1 1 -16 20.5l-44.5 58.5l-57.5 76
q38 82 25 176.5t-75 167.5q-46 55 -111.5 84.5t-137.5 29.5q-120 0 -212 -78q-103 -88 -114 -223t78 -239q47 -54 112 -84t136 -30q59 0 117 22l306 -246q16 -15 35 0z" />
    <glyph glyph-name="unif0ac" unicode="&#xf0ac;" 
d="M256 2048h1536q106 0 181 -75t75 -181v-1536q0 -106 -75 -181t-181 -75h-1536q-106 0 -181 75t-75 181v1536q0 106 75 181t181 75zM471 1373h2q76 0 123 45t47 111q-2 68 -47.5 112.5t-120.5 44.5q-76 0 -123 -44.5t-47 -112.5q0 -66 46 -111t120 -45zM1406 347h300v518
q0 200 -95 303t-251 103q-175 0 -271 -149v128h-300q2 -38 2 -263.5t-1 -432.5l-1 -207h300v504q0 49 10 73q19 46 58 78t96 32q79 0 116 -54.5t37 -149.5v-483zM323 347h300v903h-300v-903z" />
    <glyph glyph-name="unif0ad" unicode="&#xf0ad;" horiz-adv-x="2028" 
d="M476 1035h-1q-75 0 -121.5 45t-46.5 112q0 68 47.5 113t123.5 45t122 -44.5t48 -113.5q0 -67 -47 -112t-125 -45zM1098 911v-129q18 29 38 50.5t52 46.5t79 39t104 14q157 0 252.5 -104t95.5 -306v-522h-302v487q0 206 -154 206q-58 0 -97 -32t-58 -79q-10 -24 -10 -73
v-509h-303q4 825 0 911h303zM325 0v911h303v-911h-303z" />
    <glyph glyph-name="unif0ae" unicode="&#xf0ae;" 
d="M1536 1536v-384q106 0 181 -75t75 -181v-640q0 -106 -75 -181t-181 -75h-1024q-106 0 -181 75t-75 181v640q0 106 75 181t181 75h768v384q0 106 -75 181t-181 75t-181 -75t-75 -181v-128h-256v128q0 139 68.5 257t186.5 186.5t257 68.5t257 -68.5t186.5 -186.5t68.5 -257
zM896 256h256l-97 390q42 11 69.5 44.5t27.5 77.5q0 53 -37.5 90.5t-90.5 37.5q-52 0 -90 -38t-38 -90q0 -44 27.5 -77.5t70.5 -44.5z" />
    <glyph glyph-name="unif100" unicode="&#xf100;" 
d="M1536 1536v-384q106 0 181 -75t75 -181v-640q0 -106 -75 -181t-181 -75h-1024q-106 0 -181 75t-75 181v640q0 106 75 181t181 75v384q0 212 150 362t362 150t362 -150t150 -362zM768 1152h512v384q0 106 -75 181t-181 75t-181 -75t-75 -181v-384zM896 256h256l-97 390
q42 11 69.5 44.5t27.5 77.5q0 53 -37.5 90.5t-90.5 37.5t-90.5 -37.5t-37.5 -90.5q0 -44 27.5 -77.5t70.5 -44.5z" />
    <glyph glyph-name="unif111" unicode="&#xf111;" 
d="M256 2048h1536q106 0 181 -75t75 -181v-1536q0 -106 -75 -181t-181 -75h-1536q-106 0 -181 75t-75 181v1536q0 106 75 181t181 75zM410 1421l614 -461l614 461h-1228zM410 576h1228v691l-614 -461l-614 461v-691z" />
    <glyph glyph-name="unif112" unicode="&#xf112;" 
 />
    <glyph glyph-name="unif113" unicode="&#xf113;" 
 />
    <glyph glyph-name="unif114" unicode="&#xf114;" 
 />
    <glyph glyph-name="zero.osf" horiz-adv-x="600" 
 />
    <glyph glyph-name="newGlyph" horiz-adv-x="600" 
 />
  </font>
</defs>
</svg>
