<?xml version="1.0" encoding="utf-8"?>
<!-- Generator: Adobe Illustrator 16.0.0, SVG Export Plug-In . SVG Version: 6.00 Build 0)  -->
<!DOCTYPE svg PUBLIC "-//W3C//DTD SVG 1.1//EN" "http://www.w3.org/Graphics/SVG/1.1/DTD/svg11.dtd">
<svg version="1.1" id="Layer_1" xmlns="http://www.w3.org/2000/svg" xmlns:xlink="http://www.w3.org/1999/xlink" x="0px" y="0px"
	 width="100px" height="100px" viewBox="0 0 100 100" enable-background="new 0 0 100 100" xml:space="preserve">
<g>
	<g>
		<path d="M57.905,18.59c-10.76-0.464-25.361,1.017-33.189,9.284c-8.432,8.905,6.338,16.374,13.481,17.148
			c11.079,1.2,23.158,0.849,33.561-3.71c2.288-1.003,4.412-3.083,3.456-5.717c-1.002-2.761-5.416-3.516-7.876-3.927
			c-10.595-1.77-22.128-0.13-30.086,7.57c-8.551,8.276,0.838,15.893,8.579,19.135c12.55,5.258,27.791,5.903,40.971,3.077
			c2.204-0.473,6.022-0.999,6.975-3.461c1.489-3.85-3.755-5.783-6.498-6.829c-9.766-3.725-21.435-2.905-31.514-1.179
			c-4.943,0.847-9.694,2.439-14.208,4.602c-2.968,1.421-8.481,4.361-9.319,7.96c-1.915,8.227,10.389,11.085,16.186,12.109
			c11.507,2.035,23.287,1.97,34.891,1.015c1.914-0.157,1.93-3.159,0-3c-12.266,1.01-24.743,1.031-36.854-1.433
			c-2.579-0.524-5.056-1.38-7.403-2.565c-1.026-0.549-1.971-1.216-2.837-2c-3.517-2.987,1.293-6.048,2.914-7.188
			c5.139-3.616,11.336-5.411,17.429-6.606c5.961-1.169,12.161-1.404,18.212-1.066c3.502,0.196,6.919,0.896,10.287,1.832
			c2.489,0.692,8.215,2.973,3.135,4.417c-11.76,3.345-25.048,2.39-36.698-0.879c-5.311-1.489-16.061-4.888-14.38-12.295
			c1.324-5.833,10.033-8.961,14.995-10.129c5.107-1.203,10.719-0.941,15.834,0.065c0.895,0.176,5.462,1.102,4.238,2.653
			c-1.377,1.747-4.627,2.28-6.656,2.819c-11.205,2.975-24.876,4.312-35.593-0.96c-6.084-2.993-4.722-8.699-0.005-12.042
			c2.694-1.909,6.005-2.854,9.158-3.68c6.103-1.599,12.524-2.289,18.818-2.018C59.84,21.674,59.832,18.673,57.905,18.59
			L57.905,18.59z"/>
	</g>
</g>
</svg>
