<?xml version="1.0" encoding="utf-8"?>
<!-- Generator: Adobe Illustrator 16.0.0, SVG Export Plug-In . SVG Version: 6.00 Build 0)  -->
<!DOCTYPE svg PUBLIC "-//W3C//DTD SVG 1.1//EN" "http://www.w3.org/Graphics/SVG/1.1/DTD/svg11.dtd">
<svg version="1.1" id="Layer_1" xmlns="http://www.w3.org/2000/svg" xmlns:xlink="http://www.w3.org/1999/xlink" x="0px" y="0px"
	 width="100px" height="100px" viewBox="0 0 100 100" enable-background="new 0 0 100 100" xml:space="preserve">
<g>
	<g>
		<path d="M86.091,31.819C72.133,15.226,44.516,9.811,25.9,21.835C7.433,33.764,8.664,61.457,27.25,72.385
			c9.279,5.457,21.373,5.336,31.163,1.474c8.942-3.527,17.116-11.348,14.76-21.635c-2.045-8.927-13.481-16.093-22.27-13.812
			c-3.878,1.007-6.582,4.437-7.831,8.042c-0.943,2.721-0.288,8.4,3.423,8.916c0.38,0.053,0.761,0.105,1.142,0.158
			c1.891,0.263,2.707-2.627,0.798-2.893c-4.209-0.585-2.621-5.398-1.639-7.35c1.31-2.601,4.24-4.062,6.997-4.402
			c4.628-0.571,9.457,2.717,12.578,5.734c8.917,8.621,2.195,18.542-6.616,23.332C44.741,78.112,23.564,72.727,17.1,56.278
			c-6.453-16.42,5.222-32.284,20.957-36.523c16.25-4.378,35.172,1.418,45.913,14.186C85.217,35.423,87.327,33.289,86.091,31.819
			L86.091,31.819z"/>
	</g>
</g>
</svg>
