<?xml version="1.0" encoding="utf-8"?>
<!-- Generator: Adobe Illustrator 16.0.0, SVG Export Plug-In . SVG Version: 6.00 Build 0)  -->
<!DOCTYPE svg PUBLIC "-//W3C//DTD SVG 1.1//EN" "http://www.w3.org/Graphics/SVG/1.1/DTD/svg11.dtd">
<svg version="1.1" id="Layer_1" xmlns="http://www.w3.org/2000/svg" xmlns:xlink="http://www.w3.org/1999/xlink" x="0px" y="0px"
	 width="100px" height="100px" viewBox="0 0 100 100" enable-background="new 0 0 100 100" xml:space="preserve">
<g>
	<g>
		<path d="M52.584,24.255c-8.074-0.891-17.841,4.655-22.949,10.568c-2.157,2.497-3.63,5.418-3.898,8.709
			c-0.347,4.252,4.086,5.562,7.35,6.19c5.122,0.985,11.353-0.577,16.515-1.03c4.578-0.401,9.512-1.323,14.07-0.437
			c5.374,1.045,0.032,7.441-1.225,8.803c-1.954,2.118-4.593,3.377-7.271,4.287c-5.526,1.879-11.908,1.259-17.558,0.388
			c-1.892-0.292-2.705,2.599-0.798,2.893c8.76,1.351,18.196,1.687,25.733-3.692c3.405-2.431,10.216-11.208,4.179-14.586
			c-3.162-1.77-6.835-1.51-10.339-1.245c-5.938,0.45-11.868,1.035-17.8,1.555c-3.6,0.316-10.946,0.56-9.508-5.118
			c0.767-3.031,3.485-5.695,5.721-7.681c4.238-3.762,12.045-7.237,17.779-6.604C54.506,27.467,54.485,24.465,52.584,24.255
			L52.584,24.255z"/>
	</g>
</g>
</svg>
